<?xml version="1.0" encoding="UTF-8"?>
<svg id="Artboard3-1" xmlns="http://www.w3.org/2000/svg" viewBox="0 0 3296.15 1660.48">
  <defs>
    <style>
      .cls-1 {
        stroke-linecap: square;
      }

      .cls-1, .cls-2 {
        stroke: #1f4977;
        stroke-miterlimit: 10;
        stroke-width: 4.69px;
      }

      .cls-1, .cls-2, .cls-3 {
        fill: #4a81c2;
      }

      .cls-3, .cls-4, .cls-5, .cls-6, .cls-7 {
        stroke-width: 0px;
      }

      .cls-4 {
        fill: #bd4041;
      }

      .cls-5 {
        fill: #333;
      }

      .cls-6 {
        fill: #991b1e;
      }

      .cls-7 {
        fill: #fff;
      }
    </style>
  </defs>
  <g id="Logo">
    <g id="C">
      <path class="cls-4" d="m2094.03,775.73c0,174.54-141.49,316.03-316.03,316.03-116.14,0-217.66-62.66-272.58-156.02-27.61-46.93-43.45-101.63-43.45-160.02s15.84-113.09,43.45-160.02c54.92-93.36,156.44-156.01,272.58-156.01,174.54,0,316.03,141.49,316.03,316.03Z"/>
      <path class="cls-7" d="m1992.48,875.39c-38.01,69.86-114.72,117.62-203.19,117.62-126.84,0-228.82-97.15-228.57-217.71.25-119.79,102.49-216.83,228.58-216.83,74.94,0,141.46,34.28,183.15,87.25,7.77,9.87,7.03,23.6-1.76,32.66h0c-9.47,9.76-25.37,10.63-35.94,1.94-14.11-11.59-32.21-26.36-39.91-32.21-13.48-10.24-47.6-39.17-121.26-30.89v311.2s66.46,2.77,107.78-23.09c41.33-25.86,51.2-39.09,58.84-48.91,1.28-1.65,2.72-3.5,4.26-5.46,9.53-12.14,27.57-14.73,40.44-5.8h0c10,6.94,13.26,19.78,7.57,30.23Z"/>
    </g>
    <g id="C-2" data-name="C">
      <path class="cls-6" d="m1548.87,775.73c0,58.39-15.83,113.08-43.45,160.02-27.61-46.93-43.45-101.63-43.45-160.02s15.84-113.09,43.45-160.02c27.62,46.93,43.45,101.63,43.45,160.02Z"/>
      <path class="cls-4" d="m1540.97,775.73c0,174.54-141.49,316.03-316.03,316.03-116.13,0-217.65-62.65-272.58-156.01-27.61-46.94-43.45-101.63-43.45-160.02s15.84-113.09,43.45-160.02c54.92-93.36,156.44-156.01,272.58-156.01,174.54,0,316.03,141.49,316.03,316.03Z"/>
      <path class="cls-7" d="m1439.43,875.39c-38.01,69.86-114.72,117.62-203.19,117.62-126.84,0-228.82-97.15-228.57-217.71.25-119.79,102.49-216.83,228.58-216.83,74.94,0,141.46,34.28,183.15,87.25,7.77,9.87,7.03,23.6-1.76,32.66h0c-9.47,9.76-25.37,10.63-35.94,1.94-14.11-11.59-32.21-26.36-39.91-32.21-13.48-10.24-47.6-39.17-121.26-30.89v311.2s66.46,2.77,107.78-23.09c41.33-25.86,51.2-39.09,58.84-48.91,1.28-1.65,2.72-3.5,4.26-5.46,9.53-12.14,27.57-14.73,40.44-5.8h0c10,6.94,13.26,19.78,7.57,30.23Z"/>
    </g>
    <g id="K">
      <path class="cls-6" d="m995.82,775.73c0,58.39-15.84,113.09-43.45,160.02-27.61-46.94-43.45-101.63-43.45-160.02s15.84-113.09,43.45-160.02c27.62,46.93,43.45,101.63,43.45,160.02Z"/>
      <path class="cls-3" d="m987.92,775.73c0,67.8-21.36,130.63-57.72,182.11-2.65,3.76-5.39,7.46-8.2,11.09-8.86,11.46-18.48,22.28-28.81,32.39h0c-3.08,3.02-6.22,5.97-9.42,8.86-56.06,50.71-130.36,81.58-211.89,81.58-174.54,0-316.03-141.5-316.03-316.03s141.5-316.03,316.03-316.03,316.03,141.49,316.03,316.03Z"/>
      <g id="K-2" data-name="K">
        <rect class="cls-7" x="460.52" y="567.76" width="192.37" height="425.73"/>
        <path class="cls-7" d="m537.96,641.64h345.07c7.01,0,12.7,5.69,12.7,12.7v26.99c0,7.01-5.69,12.7-12.7,12.7h-345.07v-52.39h0Z" transform="translate(-241.57 464.59) rotate(-31)"/>
        <path class="cls-7" d="m930.2,957.84c-2.65,3.76-5.39,7.46-8.2,11.09-8.86,11.46-18.48,22.28-28.81,32.39l-183.44-353.98,47.25-24.07,173.2,334.56Z"/>
      </g>
    </g>
    <g id="IT">
      <circle class="cls-1" cx="2220.92" cy="639.1" r="80.64"/>
      <rect class="cls-1" x="2160.48" y="747.61" width="126" height="344.16"/>
      <polygon class="cls-2" points="2674.44 560.03 2674.44 686.02 2563.51 686.02 2563.51 1091.76 2437.51 1091.76 2437.51 686.02 2330.27 686.02 2330.27 560.03 2674.44 560.03"/>
    </g>
    <g id="Services">
      <path class="cls-5" d="m1266.37,1286.32l68.66-4.3c1.49,11.15,4.51,19.65,9.08,25.49,7.43,9.45,18.05,14.18,31.86,14.18,10.3,0,18.24-2.41,23.81-7.25,5.58-4.83,8.36-10.43,8.36-16.81s-2.66-11.47-7.96-16.25c-5.31-4.78-17.63-9.29-36.96-13.54-31.65-7.11-54.22-16.57-67.7-28.36-13.6-11.79-20.39-26.81-20.39-45.08,0-12,3.48-23.34,10.43-34.01,6.95-10.67,17.42-19.06,31.38-25.17,13.96-6.1,33.11-9.16,57.43-9.16,29.84,0,52.59,5.55,68.26,16.65,15.66,11.1,24.98,28.75,27.96,52.97l-68.02,3.98c-1.81-10.51-5.6-18.16-11.39-22.94-5.79-4.78-13.78-7.17-23.97-7.17-8.39,0-14.71,1.78-18.96,5.34-4.25,3.56-6.37,7.88-6.37,12.98,0,3.72,1.75,7.06,5.26,10.04,3.4,3.08,11.47,5.95,24.21,8.6,31.54,6.8,54.13,13.67,67.78,20.63,13.64,6.96,23.58,15.59,29.79,25.89,6.21,10.3,9.32,21.82,9.32,34.57,0,14.97-4.14,28.78-12.43,41.42-8.28,12.64-19.86,22.22-34.73,28.75-14.87,6.53-33.61,9.8-56.23,9.8-39.72,0-67.22-7.65-82.52-22.94-15.29-15.29-23.95-34.73-25.97-58.3Z"/>
      <path class="cls-5" d="m1681.75,1295.09h-129.99c1.17,10.41,3.98,18.16,8.44,23.26,6.27,7.33,14.44,10.99,24.53,10.99,6.37,0,12.43-1.59,18.16-4.78,3.5-2.02,7.27-5.58,11.31-10.67l63.88,5.89c-9.77,16.99-21.56,29.18-35.36,36.56-13.81,7.38-33.61,11.07-59.42,11.07-22.41,0-40.04-3.16-52.89-9.48-12.85-6.32-23.5-16.35-31.94-30.11-8.44-13.75-12.66-29.92-12.66-48.51,0-26.44,8.47-47.84,25.41-64.2,16.94-16.35,40.33-24.53,70.17-24.53,24.21,0,43.33,3.66,57.35,10.99,14.02,7.33,24.69,17.95,32.02,31.86,7.33,13.91,10.99,32.02,10.99,54.32v7.33Zm-65.95-31.06c-1.27-12.53-4.65-21.51-10.12-26.92-5.47-5.42-12.66-8.12-21.58-8.12-10.3,0-18.53,4.09-24.69,12.27-3.93,5.1-6.43,12.69-7.49,22.78h63.88Z"/>
      <path class="cls-5" d="m1695.87,1194.41h60.69v27.72c5.84-12,11.87-20.26,18.08-24.77,6.21-4.51,13.88-6.77,23.02-6.77s20.02,2.97,31.38,8.92l-20.07,46.2c-7.65-3.19-13.7-4.78-18.16-4.78-8.5,0-15.08,3.5-19.75,10.51-6.69,9.88-10.04,28.36-10.04,55.44v56.71h-65.15v-169.17Z"/>
      <path class="cls-5" d="m1823.56,1194.41h67.46l32.82,107.21,34.06-107.21h65.43l-71.9,169.17h-57.5l-70.35-169.17Z"/>
      <path class="cls-5" d="m2028.03,1130.05h64.83v44.13h-64.83v-44.13Zm0,64.36h64.83v169.17h-64.83v-169.17Z"/>
      <path class="cls-5" d="m2244.14,1297.32l61.65,7.01c-3.4,12.85-8.98,23.97-16.73,33.37-7.75,9.4-17.66,16.7-29.71,21.9-12.05,5.2-27.37,7.81-45.96,7.81s-32.89-1.67-44.84-5.01c-11.95-3.34-22.22-8.75-30.82-16.23-8.6-7.48-15.35-16.26-20.23-26.34-4.89-10.08-7.33-23.45-7.33-40.11s2.97-31.88,8.92-43.45c4.35-8.49,10.3-16.1,17.84-22.84,7.54-6.74,15.29-11.75,23.26-15.04,12.64-5.2,28.83-7.8,48.59-7.8,27.61,0,48.67,4.94,63.16,14.81,14.5,9.88,24.66,24.32,30.51,43.33l-61.01,8.12c-1.91-7.22-5.39-12.66-10.43-16.33-5.04-3.66-11.81-5.5-20.31-5.5-10.73,0-19.41,3.84-26.04,11.53-6.64,7.69-9.96,19.32-9.96,34.9,0,13.89,3.29,24.44,9.88,31.64,6.58,7.21,14.97,10.81,25.17,10.81,8.5,0,15.64-2.18,21.43-6.53,5.79-4.35,10.11-11.04,12.98-20.07Z"/>
      <path class="cls-5" d="m2507.08,1295.09h-129.99c1.17,10.41,3.98,18.16,8.44,23.26,6.27,7.33,14.44,10.99,24.53,10.99,6.37,0,12.43-1.59,18.16-4.78,3.5-2.02,7.27-5.58,11.31-10.67l63.88,5.89c-9.77,16.99-21.56,29.18-35.36,36.56-13.81,7.38-33.61,11.07-59.42,11.07-22.41,0-40.04-3.16-52.89-9.48-12.85-6.32-23.5-16.35-31.94-30.11-8.44-13.75-12.66-29.92-12.66-48.51,0-26.44,8.47-47.84,25.41-64.2,16.94-16.35,40.33-24.53,70.17-24.53,24.21,0,43.33,3.66,57.35,10.99,14.02,7.33,24.69,17.95,32.02,31.86,7.33,13.91,10.99,32.02,10.99,54.32v7.33Zm-65.95-31.06c-1.27-12.53-4.65-21.51-10.12-26.92-5.47-5.42-12.66-8.12-21.58-8.12-10.3,0-18.53,4.09-24.69,12.27-3.93,5.1-6.43,12.69-7.49,22.78h63.88Z"/>
      <path class="cls-5" d="m2509.08,1316.59l64.36-6.05c2.65,7.65,6.37,13.12,11.15,16.41,4.78,3.29,11.15,4.94,19.12,4.94,8.71,0,15.45-1.85,20.23-5.57,3.72-2.76,5.58-6.2,5.58-10.34,0-4.66-2.44-8.27-7.33-10.82-3.5-1.8-12.8-4.03-27.88-6.68-22.52-3.92-38.15-7.56-46.91-10.9-8.76-3.34-16.14-8.99-22.14-16.95-6-7.95-9-17.03-9-27.21,0-11.14,3.24-20.74,9.72-28.81,6.48-8.06,15.4-14.08,26.76-18.06,11.36-3.98,26.6-5.97,45.72-5.97,20.18,0,35.07,1.54,44.68,4.62,9.61,3.08,17.63,7.86,24.06,14.34,6.42,6.48,11.76,15.24,16.01,26.28l-61.49,6.05c-1.59-5.42-4.25-9.4-7.96-11.95-5.1-3.4-11.26-5.1-18.48-5.1s-12.66,1.3-16.01,3.9c-3.35,2.6-5.02,5.75-5.02,9.46,0,4.14,2.12,7.26,6.37,9.38,4.25,2.12,13.49,4.03,27.72,5.73,21.56,2.44,37.59,5.83,48.11,10.19,10.51,4.35,18.56,10.56,24.13,18.62,5.57,8.06,8.36,16.92,8.36,26.58s-2.95,19.26-8.84,28.49c-5.89,9.23-15.19,16.58-27.88,22.04-12.69,5.46-29.98,8.19-51.85,8.19-30.9,0-52.91-4.41-66.03-13.22-13.12-8.81-21.53-21.35-25.25-37.59Z"/>
    </g>
    <g>
      <path class="cls-4" d="m2873.63,359.58c-61.43,19.38-111,61.58-142.22,116.67h-91.12v-116.67h116.67v-116.67h116.67v116.67h0Z"/>
      <path class="cls-3" d="m2990.29,359.58v116.67h-116.67v116.67h-116.59c0-105.09,64.13-195.2,155.39-233.33h77.86Z"/>
    </g>
  </g>
</svg>