<svg width="280" height="47" viewBox="0 0 280 47" fill="none" xmlns="http://www.w3.org/2000/svg">
<path fill-rule="evenodd" clip-rule="evenodd" d="M19.6112 11.3717C22.7269 11.3717 25.2814 8.81715 25.2814 5.70147C25.2814 2.55453 22.7269 0 19.6112 0C16.4643 0 13.9098 2.55453 13.9098 5.67022C13.9098 8.81715 16.4643 11.3717 19.6112 11.3717ZM2.14961 25.984L3.83195 28.0161L16.4913 43.3072L19.5352 46.984L22.5737 43.3072L35.1763 28.0572L36.8896 25.984C38.2294 24.3018 39.008 22.1835 39.008 19.9089C39.008 14.5186 34.6463 10.1569 29.256 10.1569C26.5871 10.1569 24.178 11.2262 22.4258 12.9602C20.639 14.7283 19.5352 17.1875 19.5352 19.9089C19.5352 17.1875 18.4235 14.7283 16.6288 12.9602C14.8689 11.2262 12.4521 10.1569 9.78324 10.1569C4.39295 10.1569 0 14.5186 0 19.9089C0 22.1835 0.809846 24.3018 2.14961 25.984ZM27.3552 12.9602C23.0248 12.9602 19.5354 16.4196 19.5354 20.7188C19.5354 16.4196 16.0148 12.9602 11.6843 12.9602C7.35256 12.9602 3.83195 16.4196 3.83195 20.7188C3.83195 22.5572 4.48686 24.2394 5.54538 25.5479L19.5354 43.3072L33.4629 25.5479C34.5527 24.2394 35.1763 22.5572 35.1763 20.7188C35.1763 16.4196 31.687 12.9602 27.3552 12.9602ZM29.5361 25.0493L19.5354 38.758L9.47223 25.0493C8.69233 24.0832 8.22491 22.8684 8.22491 21.5286C8.22491 18.413 10.7807 15.9209 13.8964 15.9209C17.0121 15.9209 19.5354 18.413 19.5354 21.5286C19.5354 18.413 22.0274 15.9209 25.1431 15.9209C28.2588 15.9209 30.7834 18.413 30.7834 21.5286C30.7834 22.8684 30.316 24.0832 29.5361 25.0493ZM109.575 15.9138C109.512 15.8504 109.512 15.9138 109.575 16.1015V25.0209H107.487V17.8093C107.423 17.9044 107.345 18.0154 107.266 18.1264C107.187 18.2374 107.109 18.3485 107.045 18.4437L106.735 18.2742C106.175 17.9686 105.702 17.7097 105.274 17.4947C106.033 16.7968 106.664 15.9746 107.233 14.9648C107.74 14.0131 108.121 13.0667 108.309 12.0542L110.778 12.7495C110.902 12.7495 110.966 12.8764 110.966 12.9398C110.902 13.0667 110.839 13.1302 110.714 13.191C110.524 13.191 110.334 13.3178 110.207 13.6351C110.207 13.733 110.131 13.9049 110.009 14.1824C109.973 14.2645 109.933 14.3558 109.89 14.4572C109.78 14.6421 109.692 14.8477 109.599 15.0623C109.532 15.216 109.464 15.3743 109.385 15.5331C109.702 15.5331 109.765 15.66 109.575 15.9138ZM116.155 15.7869V14.14H118.368V15.7869H116.155ZM116.155 17.3678H118.368V19.0121H116.155V17.3678ZM114.066 19.0121H111.156V20.5929H113.94C113.686 21.6054 113.181 22.4276 112.486 22.9351C112.422 22.9986 111.788 23.3132 110.714 23.8207C111.473 24.1988 112.105 24.5794 112.613 25.0844C113.622 24.516 114.257 24.0084 114.571 23.6938C115.333 22.9351 115.774 21.9226 116.028 20.5929H118.368V21.3516H120.583V17.3678H121.656V15.7869H120.583V12.5591H111.473V14.14H114.066V15.7869H110.588V17.3678H114.066V19.0121ZM167.077 15.7869C167.141 15.7235 167.204 15.6601 167.204 15.5966C167.204 15.5332 167.141 15.4697 167.014 15.4697C167.458 14.7745 167.839 14.14 168.153 13.5082C168.28 13.191 168.407 13.0667 168.597 13.0667C168.788 13.0033 168.851 12.9398 168.851 12.8764C168.851 12.7495 168.788 12.6861 168.658 12.6226L166.446 12.0542C166.255 12.8764 165.75 13.8254 164.992 14.8379C164.294 15.7869 163.535 16.6091 162.713 17.3678C162.793 17.4034 162.873 17.4389 162.956 17.4749C163.459 17.6958 164.004 17.935 164.548 18.3168C164.738 18.1265 164.865 17.9996 165.055 17.8727V25.0209L167.014 24.9601V16.165C166.953 15.9746 166.953 15.8504 167.077 15.7869ZM175.999 18.8218V16.6091H170.683V18.8218H175.999ZM175.999 22.8083V20.593H170.683V22.8083H175.999ZM173.274 14.6391C173.197 14.7802 173.13 14.9035 173.089 15.0256H178.149V25.0209H175.999V24.4526H170.683V25.0209H168.534V15.0256H170.747C171.381 14.0766 171.823 13.191 172.076 12.2419C172.16 12.2837 172.352 12.298 172.673 12.3217C172.839 12.334 173.039 12.3489 173.277 12.3715C173.848 12.4349 174.289 12.4957 174.606 12.5592C174.86 12.6226 174.923 12.686 174.606 12.8129C174.352 12.9398 174.226 13.0033 174.165 13.0667C174.165 13.0667 174.038 13.3813 173.721 13.8254C173.721 13.8864 173.662 14.0036 173.601 14.1254L173.594 14.14C173.519 14.2143 173.489 14.2669 173.463 14.3104C173.445 14.3412 173.43 14.3675 173.403 14.3938C173.359 14.4824 173.315 14.5633 173.274 14.6391ZM213.956 17.4947V16.165H209.021V17.4947H213.956ZM205.225 16.8603C205.857 17.4313 206.364 17.9996 206.618 18.6341C206.869 19.139 206.996 19.6466 206.996 20.2784C206.996 21.3517 206.618 22.0496 205.732 22.3642C205.352 22.5545 204.72 22.5545 203.898 22.5545C203.898 21.9862 203.707 21.4178 203.327 20.9102C203.771 20.9737 204.085 20.9737 204.212 20.9737C204.53 20.9737 204.783 20.8468 204.971 20.593C205.161 20.4027 205.225 20.1515 205.161 19.7074C205.098 19.2683 204.91 18.9521 204.723 18.6391L204.72 18.6341L204.339 18.19C204.212 18.0631 204.085 17.9362 204.022 17.8093C203.928 17.6837 203.818 17.5734 203.707 17.4627C203.596 17.352 203.485 17.2409 203.39 17.1141L204.593 14.2669H203.2V24.8333H201.492V12.6861H206.618L207.186 13.2544L206.869 13.8889H210.285V12.3715C210.602 12.3054 210.982 12.3054 211.487 12.3715H212.373C212.944 12.3715 213.007 12.4957 212.563 12.813C212.5 12.8764 212.436 13.0033 212.373 13.2544V13.3813V13.5717V13.6986V13.8889H216.55V16.6091H214.842V15.216H208.389V16.6726H206.618V14.3304L205.225 16.8603ZM210.856 20.4687C210.856 20.215 210.856 19.9612 210.919 19.7708H211.741V23.567C211.741 24.1988 212.183 24.516 213.132 24.516H214.966C215.664 24.516 216.359 23.8842 217.055 22.4911C216.944 22.4245 216.836 22.3599 216.732 22.2972L216.716 22.2877C216.235 21.998 215.822 21.7489 215.41 21.542C215.157 22.5545 214.779 23.0621 214.271 22.9986H213.956C213.639 22.9986 213.512 22.8083 213.512 22.4276V19.7708H216.359V18.3803H207.059V19.7708H208.957L208.894 20.6564C208.831 21.7324 208.389 22.4911 207.567 22.9986C207.123 23.2498 206.237 23.4401 205.034 23.6304C205.669 24.0085 206.237 24.4526 206.806 24.9602C207.818 24.6429 208.64 24.2623 209.275 23.8208C210.16 23.1255 210.665 22.3007 210.729 21.2882C210.729 21.2635 210.738 21.2102 210.754 21.1245V21.1233C210.778 20.9891 210.817 20.7759 210.856 20.4687ZM186.31 17.3679H187.954C187.639 17.1776 187.386 16.9872 187.132 16.7969C186.976 16.9088 186.844 17.0129 186.732 17.1007C186.527 17.2616 186.392 17.3679 186.31 17.3679ZM184.602 16.9238C184.98 16.8603 185.361 16.6726 185.614 16.4823H184.412V15.5333H186.31C186.373 15.3429 186.373 15.216 186.373 15.1526H185.551L185.297 15.4064L184.097 15.0891C184.729 14.5208 185.046 14.1401 185.234 13.8255H184.033V17.3679H184.916L184.602 16.9238ZM189.789 18.5073H182.577V12.813H190.169V13.8255H186.627C186.563 13.9524 186.5 14.0767 186.373 14.2035H189.598V15.1526H187.89C187.827 15.2795 187.827 15.4064 187.89 15.5333H189.979V16.4823H188.588C189.03 16.7361 189.284 16.8603 189.474 16.8603L188.713 17.3679H189.789V18.5073ZM191.055 12.813V13.7621C190.864 14.267 190.484 14.6477 189.915 14.9014C190.36 14.9649 190.738 15.0891 191.182 15.3429H190.801V16.292H191.687C191.591 16.3554 191.497 16.4189 191.402 16.4824L191.396 16.4866C191.304 16.5486 191.211 16.6106 191.118 16.6726L191.208 16.7446C191.504 16.982 191.849 17.2588 192.194 17.4313C191.623 17.6217 190.928 17.7486 190.233 17.7486C190.423 18.0631 190.674 18.4438 190.928 18.7584H182.262V19.7074H187.449C187.449 19.8343 187.386 20.0247 187.322 20.215H183.399V24.5795H195.988V20.215H191.496V19.7074H197.254V18.7584H196.051C196.305 18.4438 196.622 18.0631 197 17.8094C196.115 17.7486 195.356 17.6217 194.661 17.4313C194.863 17.2777 195.109 17.0827 195.363 16.8812L195.546 16.7361C195.924 16.4189 196.178 16.1651 196.305 15.9747V15.9139L195.737 15.3429H195.546H191.182C191.877 15.0257 192.258 14.5208 192.382 13.9524L192.445 13.7621H193.775V14.7111C193.775 15.0891 194.092 15.216 194.661 15.216H196.115C196.495 15.216 196.749 15.0257 197 14.7111L197.02 14.6724L197.032 14.6493L197.065 14.5854C197.167 14.3902 197.254 14.2235 197.254 14.0132C196.873 13.889 196.495 13.7621 196.115 13.5717C195.988 14.0766 195.737 14.3304 195.483 14.3304C195.166 14.3304 194.975 14.2035 194.975 14.0132V12.813H191.055ZM196.051 18.7584H190.928C191.94 18.6976 192.826 18.4438 193.585 18.1266C194.534 18.4438 195.292 18.6342 196.051 18.7584ZM194.407 16.292H192.445C192.624 16.4702 192.863 16.6172 193.122 16.7759C193.231 16.8431 193.344 16.9125 193.458 16.9872C193.838 16.7969 194.153 16.6092 194.407 16.292ZM189.852 19.7074V20.215H188.966C188.966 20.158 188.979 20.0881 188.993 20.0112C189.011 19.9171 189.03 19.8122 189.03 19.7074H189.852ZM185.678 21.7959C185.836 21.891 185.994 22.0014 186.152 22.1118C186.31 22.2221 186.468 22.3325 186.627 22.4277H185.297V21.1641H186.627C186.373 21.4178 186.058 21.669 185.678 21.7959ZM193.585 23.1864V22.4277H187.449C187.764 22.1765 188.081 21.7959 188.525 21.1641H189.852V21.4178C189.852 21.8593 190.106 22.1131 190.611 22.1131H192.321H193.648V21.4813H191.94C191.687 21.4813 191.496 21.3517 191.496 21.1641H194.092V23.6305H185.297V23.1864H193.585ZM145.001 13.3813C145.823 13.8254 146.709 14.3303 147.468 15.0256C147.848 14.5841 148.29 14.2034 148.797 13.8889C148.099 13.191 147.277 12.5591 146.265 12.1811C145.76 12.686 145.316 13.1301 145.001 13.3813ZM143.798 16.5456C144.811 16.9237 145.76 17.3678 146.709 17.8727C147.024 17.4312 147.404 16.9237 147.785 16.5456C146.836 15.9138 145.823 15.4697 144.747 15.1525C144.43 15.66 144.116 16.1015 143.798 16.5456ZM154.806 14.9648L154.895 14.9152C155.434 14.6144 155.979 14.3106 156.577 13.9523C157.273 14.5207 157.968 15.1525 158.602 15.8504C159.098 16.4008 159.45 16.9031 159.741 17.317C159.784 17.378 159.826 17.4377 159.866 17.4947C159.044 17.8093 158.412 18.1265 157.968 18.4437C157.653 17.8093 157.146 17.1774 156.577 16.5456C156.136 16.1015 155.565 15.5966 154.806 14.9648ZM148.858 15.9746C149.006 15.7389 149.182 15.4893 149.372 15.2192C149.59 14.9107 149.826 14.5755 150.061 14.2034C150.195 14.2704 150.321 14.3374 150.441 14.4015C150.663 14.5198 150.868 14.6288 151.073 14.711L152.023 15.089C152.149 15.1525 152.149 15.2159 152.149 15.2794C152.149 15.4063 152.086 15.4063 152.023 15.4063C151.705 15.4697 151.518 15.5331 151.391 15.66C151.359 15.7068 151.327 15.7555 151.293 15.806L151.287 15.8163L151.286 15.8169C151.05 16.1736 150.753 16.6209 150.315 17.114L150.305 17.1275C149.864 17.7574 149.426 18.3843 148.922 18.9486C148.417 18.5706 147.785 18.2534 147.09 17.9996C147.848 17.2409 148.417 16.5456 148.858 15.9746ZM154.552 13.3178V17.3678C154.552 17.5581 154.552 17.7485 154.616 17.9996V18.3168V18.5706C154.616 18.81 154.59 18.9995 154.572 19.1386C154.561 19.2191 154.552 19.2828 154.552 19.3293C154.362 19.7073 154.047 19.8977 153.413 20.0246C153.098 20.088 152.591 20.1515 151.896 20.1515C151.642 19.3928 151.391 18.8217 151.073 18.3803H151.705H152.149C152.403 18.3803 152.464 18.2534 152.464 17.9996V12.2419L153.73 12.3054C154.238 12.3714 154.552 12.3714 154.806 12.3714C155.123 12.3714 155.187 12.4957 154.87 12.686C154.679 12.8129 154.552 13.0667 154.552 13.3178ZM143.798 23.8207C144.43 22.9986 144.874 22.3641 145.252 21.7958C146.014 20.7198 146.519 19.8977 146.772 19.3928C147.277 19.7073 147.785 20.0246 148.29 20.3418C148.099 20.7833 147.721 21.4812 147.15 22.491L146.201 24.0719L146.196 24.0822C146.075 24.3291 146.015 24.4534 146.077 24.516C146.201 24.8967 146.077 24.9601 145.696 24.8332C145.252 24.6429 144.621 24.3257 143.798 23.8207ZM158.031 19.3928C158.095 19.2659 158.222 19.2024 158.412 19.2024C158.539 19.2024 158.602 19.139 158.666 19.0755C158.666 19.0121 158.666 18.9486 158.602 18.8852C158.509 18.8228 158.384 18.761 158.23 18.6841C158.071 18.6047 157.877 18.5091 157.653 18.3803L156.577 17.8727C156.136 18.7583 155.501 19.6465 154.616 20.5929C152.781 22.4276 150.632 23.3766 148.163 23.5669C148.67 24.0084 149.112 24.516 149.493 25.0209C151.959 24.6429 154.111 23.5669 155.946 21.8592C156.895 20.9736 157.59 20.1515 158.031 19.3928ZM136.287 13.6821C136.137 13.6633 135.913 13.6351 135.574 13.6351L134.184 13.5717V21.7324H136.27V14.3938C136.27 14.2035 136.333 14.0766 136.46 14.0131C136.587 14.0131 136.65 13.9523 136.65 13.8254C136.65 13.6986 136.587 13.6986 136.46 13.6986C136.418 13.6986 136.362 13.6915 136.287 13.6821ZM133.235 15.9139V17.6216H130.893C131.527 18.5072 132.413 19.2659 133.613 19.8343C133.108 20.4687 132.664 20.9102 132.286 21.2248C131.591 20.6564 131.083 20.1515 130.766 19.6466V25.0209H128.617V19.8977C128.046 20.9102 127.414 21.7958 126.655 22.6179C126.208 22.3183 125.68 22.0596 125.168 21.8084L125.167 21.8082C125.029 21.7403 124.891 21.6729 124.757 21.6055C125.389 21.1005 125.96 20.5322 126.465 19.9612C127.036 19.2025 127.541 18.4438 127.921 17.6216H125.643V15.9139H128.617V14.5207C128.292 14.58 127.966 14.6255 127.647 14.67C127.283 14.7208 126.928 14.7704 126.592 14.8379C126.338 14.4573 126.023 13.9523 125.643 13.2544C127.731 13.2544 129.819 12.9398 131.842 12.3054C131.969 12.4957 132.159 12.6861 132.413 12.9399C132.652 13.1792 132.842 13.3942 132.981 13.5519C133.061 13.6431 133.125 13.7155 133.171 13.762C133.362 13.8889 133.362 14.0131 133.171 14.0766C132.981 14.0766 132.791 14.0766 132.6 13.9523C132.349 13.9523 132.032 14.0131 131.651 14.14C131.4 14.2035 131.083 14.2669 130.766 14.3304V15.9139H133.235ZM139.751 13.0667V23.3132C139.751 23.8842 139.624 24.3257 139.371 24.5795C139.244 24.7064 138.863 24.8333 138.168 24.9601C137.536 25.0844 137.031 25.0844 136.587 25.0209C136.524 24.516 136.206 23.9477 135.638 23.2498C136.46 23.3767 137.031 23.3767 137.346 23.2498C137.599 23.1863 137.79 22.9986 137.79 22.7448V12.242L139.053 12.3054H140.002C140.066 12.3054 140.129 12.3715 140.129 12.4349C140.129 12.5592 140.129 12.6226 140.002 12.6861C139.812 12.7495 139.751 12.8764 139.751 13.0667ZM53.1453 42.0403L55.0434 43.9383L52.3866 44.3164L51.501 43.3039C50.6154 43.8115 49.6029 44.0018 48.4636 44.0018C44.8577 44.0018 42.3279 41.4693 42.3279 37.8634C42.3279 34.5114 45.2384 32.1718 48.4636 32.1718C51.8817 32.1718 54.6019 34.5114 54.6019 38.1172C54.6019 39.5712 54.0944 40.8374 53.1453 42.0403ZM47.578 39.2566L50.2982 38.9394L51.0569 39.7615C51.3741 39.2566 51.5645 38.6856 51.5645 38.1172C51.5645 36.4729 50.1713 34.9555 48.4636 34.9555C46.7558 34.9555 45.3019 36.346 45.3019 37.8634C45.3019 39.825 46.7558 41.2181 48.4636 41.2181C48.7174 41.2181 49.0346 41.1547 49.3492 41.0278L47.578 39.2566ZM63.4581 32.55V38.3711C63.4581 39.825 63.3312 41.4059 61.4966 41.4059C59.5985 41.4059 59.5351 39.825 59.5351 38.3711V32.55H56.6245V38.7491C56.6245 40.2057 56.6879 41.5962 57.8273 42.6722C58.7129 43.6212 60.1669 43.9384 61.4966 43.9384C62.7629 43.9384 64.2168 43.6212 65.1659 42.6722C66.2418 41.5962 66.3052 40.2057 66.3052 38.7491V32.55H63.4581ZM75.4149 32.55V34.9556H71.9333V36.8537H75.2246V39.2567H71.9333V41.1548H75.4149V43.6212H69.0889V32.55H75.4149ZM84.3976 34.9556V32.55H78.0716V43.6212H84.3976V41.1548H80.9795V39.2567H84.2073V36.8537H80.9795V34.9556H84.3976ZM89.9648 43.6212H87.1177V32.55H89.9648L95.2784 39.3201V32.55H98.1863V43.6212H95.2784L90.0256 36.8537H89.9648V43.6212ZM113.308 34.9556V32.55H106.982V43.6212H113.308V41.1548H109.829V39.2567H113.118V36.8537H109.829V34.9556H113.308ZM115.965 32.55H118.875V41.1548H122.354V43.6212H115.965V32.55ZM127.099 32.55H124.188V43.6212H127.099V32.55ZM139.18 32.55L133.93 41.1548H138.612V43.6212H129.121L134.374 34.9556H130.007V32.55H139.18ZM147.214 39.5078H144.811L146.014 35.9654H146.077L147.214 39.5078ZM148.036 41.7231L148.734 43.6212H151.832L147.658 32.55H144.494L140.192 43.6212H143.293L144.052 41.7231H148.036ZM156.704 34.7018H156.514V36.8537H156.831C157.59 36.8537 158.412 36.7268 158.412 35.7777C158.412 34.7653 157.526 34.7018 156.704 34.7018ZM162.018 40.5203C162.018 42.8625 160.12 43.6212 158.095 43.6212H153.603V32.55H157.717C159.742 32.55 161.069 33.3087 161.069 35.3971C161.069 36.4096 160.751 37.2317 159.802 37.6758V37.7366C161.322 37.927 162.018 39.0029 162.018 40.5203ZM156.831 39.0029H156.514V41.4059H156.894L157.013 41.4062C157.848 41.4091 159.171 41.4136 159.171 40.2692C159.171 38.9798 157.925 38.9924 157.037 39.0015L156.916 39.0026C156.887 39.0028 156.859 39.0029 156.831 39.0029ZM170.747 34.9556V32.55H164.421V43.6212H170.747V41.1548H167.331V39.2567H170.556V36.8537H167.331V34.9556H170.747ZM180.237 34.9556H177.895V43.6212H174.987V34.9556H172.582V32.55H180.237V34.9556ZM185.109 36.7902V32.55H182.262V43.6212H185.109V39.0663H189.284V43.6212H192.194V32.55H189.284V36.7902H185.109ZM203.834 32.55V36.7902H208.008V32.55H210.855V43.6212H208.008V39.0663H203.834V43.6212H200.923V32.55H203.834ZM219.269 34.9555C220.977 34.9555 222.431 36.346 222.431 37.8634C222.431 39.8249 220.977 41.2181 219.269 41.2181C217.562 41.2181 216.105 39.8249 216.105 37.8634C216.105 36.346 217.562 34.9555 219.269 34.9555ZM219.269 32.1718C216.042 32.1718 213.131 34.5113 213.131 37.8634C213.131 41.4692 215.727 44.0017 219.269 44.0017C222.812 44.0017 225.405 41.4692 225.405 37.8634C225.405 34.5113 222.495 32.1718 219.269 32.1718ZM231.414 32.2326C232.553 32.2326 233.946 32.6133 234.895 33.1209L233.756 35.397C233.248 34.9555 232.553 34.6383 231.858 34.6383C231.35 34.6383 230.592 34.9555 230.592 35.5873C230.592 36.1741 231.301 36.4348 231.808 36.6215L231.809 36.6216L231.872 36.6448L231.921 36.6632L232.617 36.8536C234.198 37.2951 235.4 38.1172 235.4 39.8884C235.4 40.9643 235.083 42.1037 234.198 42.8624C233.375 43.6211 232.173 43.9383 231.099 43.9383C229.643 43.9383 228.316 43.4308 227.176 42.6721L228.379 40.3325C229.138 40.9643 229.96 41.4692 230.972 41.4692C231.668 41.4692 232.363 41.1547 232.363 40.3325C232.363 39.5972 231.3 39.2786 230.658 39.0862L230.592 39.0662C228.821 38.5587 227.618 38.1172 227.618 35.9653C227.618 33.6892 229.201 32.2326 231.414 32.2326ZM240.524 34.8287H241.032C242.168 34.8287 243.117 34.8922 243.117 36.2827C243.117 37.6097 242.108 37.6097 241.032 37.6097H240.524V34.8287ZM237.677 43.6212H240.524V39.9519H242.168C244.698 39.9519 246.091 38.8126 246.091 36.1558C246.091 33.6259 244.447 32.55 242.108 32.55H237.677V43.6212ZM248.304 32.55H251.215V43.6212H248.304V32.55ZM258.426 34.9556H260.832V32.55H253.176V34.9556H255.518V43.6212H258.426V34.9556ZM264.816 39.5078H267.221L266.082 35.9654H266.019L264.816 39.5078ZM268.739 43.6212L268.044 41.7231H264.057L263.298 43.6212H260.2L264.501 32.55H267.663L271.84 43.6212H268.739ZM276.521 32.55H273.611V43.6212H280V41.1548H276.521V32.55Z" fill="white"/>
</svg>
